<svg xmlns="http://www.w3.org/2000/svg" width="66px" height="32px" viewBox="0 0 66 32"><g fill="none" fill-rule="evenodd"><path fill="none" d="M0 0h66v32H0z"/><path fill="#0096FF" d="M10.523 6.69a1.232 1.232 0 0 1 1.842.945l.006.122v18.01c0 3.41-2.82 6.182-6.285 6.182a6.353 6.353 0 0 1-4.616-1.987c-.771-.82-.73-2.11.09-2.88a2.04 2.04 0 0 1 2.764-.027l.12.117c.424.452 1.008.7 1.642.7 1.163 0 2.12-.863 2.2-1.954l.006-.15v-1.083a4.571 4.571 0 0 1-2.107.514 6.191 6.191 0 0 1-6.18-5.955L0 19.018v-6.02c0-3.409 2.775-6.182 6.185-6.182.9 0 1.719.26 2.445.705l.215.139 1.678-.97Zm37.952-.166A2.04 2.04 0 0 1 50.51 8.41l.006.152v14.599a2.039 2.039 0 0 1-4.074.152l-.005-.152V8.562c0-1.126.913-2.038 2.04-2.038Zm-11.605 0a6.191 6.191 0 0 1 6.182 5.955l.004.226v10.456a2.039 2.039 0 0 1-4.074.152l-.005-.152V12.705c0-1.16-.945-2.105-2.107-2.105-1.11 0-2.023.864-2.1 1.955l-.006.15v10.456a2.039 2.039 0 0 1-4.073.152l-.006-.152V12.705c0-3.408 2.775-6.181 6.185-6.181Zm-15.3 0a6.191 6.191 0 0 1 6.181 5.955l.004.226v1.707c0 1.202-.78 2.236-1.918 2.574l-.173.046-6.2 1.412v.574a2.108 2.108 0 0 0 3.946 1.026l.074-.145a2.04 2.04 0 0 1 3.703 1.709 6.207 6.207 0 0 1-5.617 3.591 6.191 6.191 0 0 1-6.182-5.955l-.004-.226v-6.313c0-3.408 2.775-6.181 6.186-6.181Zm38.236 0a6.191 6.191 0 0 1 6.182 5.955l.004.226v1.707c0 1.202-.78 2.236-1.918 2.575l-.173.045-6.2 1.412v.574a2.108 2.108 0 0 0 3.945 1.026l.074-.145a2.04 2.04 0 0 1 3.704 1.709 6.207 6.207 0 0 1-5.618 3.591 6.191 6.191 0 0 1-6.18-5.955l-.005-.226v-6.313c0-3.408 2.775-6.181 6.185-6.181Zm-53.62 4.369c-1.111 0-2.024.864-2.102 1.955l-.005.15v6.02c0 1.16.945 2.105 2.106 2.105 1.38 0 2.047-1.053 2.103-2.106l.004-.143v-5.732c0-1.099-.663-2.25-2.107-2.25ZM21.57 10.6c-1.111 0-2.024.864-2.101 1.955l-.006.15v1.558l4.213-.96v-.598c0-1.16-.945-2.105-2.106-2.105Zm38.236 0c-1.11 0-2.023.864-2.1 1.955l-.006.15v1.558l4.213-.96v-.598c0-1.16-.945-2.105-2.107-2.105ZM48.476.072a2.535 2.535 0 1 1-2.537 2.535c0-1.4 1.135-2.535 2.536-2.535Z"/></g></svg>